<svg width="582" height="402" xmlns="http://www.w3.org/2000/svg">
 <!-- Created with SVG Editor - http://github.com/mzalive/SVG Editor/ -->

 <g>
  <title>Layer 1</title>
  <!-- Created with SVG Editor - http://github.com/mzalive/SVG Editor/ -->
  <g id="svg_20">
   <g transform="matrix(4.35679, 0, 0, 4.29575, -4430.32, -4128.19)" id="svg_19">
    <title>Layer 1</title>
    <g id="svg_12">
     <path fill-rule="evenodd" clip-rule="evenodd" d="m1083.441528,1011.265564l-54.575806,-40.931763l109.151733,0l-54.575928,40.931763zm-57.777832,24.025696l0,-55.889221l35.150269,26.362671l-35.150269,29.52655zm2.670044,9.709351l110.215088,0l-39.997314,-33.597961l-12.526733,9.395264l-2.583252,1.937378l-2.583252,-1.937378l-12.5271,-9.395264l-39.997437,33.597961zm77.735107,-39.235901l35.150635,29.52655l0,-55.889221l-35.150635,26.362671zm-80.405151,-44.764282c-4.909241,0 -8.888977,4.178711 -8.888977,9.333374l0,74.666809c0,5.154663 3.979736,9.333252 8.888977,9.333252l115.555786,0c4.908691,0 8.888672,-4.178589 8.888672,-9.333252l0,-74.666809c0,-5.154663 -3.97998,-9.333374 -8.888672,-9.333374l-115.555786,0z" fill="#fff0f5" id="svg_13"/>
    </g>
   </g>
  </g>
 </g>
</svg>